PathFileType	4	(X/Y/Z)	OpenSim_Sub09_EMGStiffKnee_Gyro.trc
DataRate	CameraRate	NumFrames	NumMarkers	Units	OrigDataRate	OrigDataStartFrame	OrigNumFrames
100	100	37	8	m	100	1897	7584
Frame#	Time	torso_imu_offset_imu	pelvis_imu_offset_imu	tibia_r_imu_offset_imu	femur_r_imu_offset_imu	tibia_l_imu_offset_imu	femur_l_imu_offset_imu	toes_r_imu_offset_imu	toes_l_imu_offset_imu
				X1	Y1	Z1	X2	Y2	Z2	X3	Y3	Z3	X4	Y4	Z4	X5	Y5	Z5	X6	Y6	Z6	X7	Y7	Z7	X8		Y8	Z8	

1897	18.96000000	0.23438532	0.13229695	0.26877697	0.57306987	-0.27370801	-0.08109101	0.12551269	-0.50977357	-0.53363581	0.83321013	-0.21008767	0.35170106	0.43917470	0.48665845	1.54988208	0.05643622	0.39835453	0.64223718	-0.48480463	-0.40685511	-0.62465971	-0.07911862	-1.07447117	0.53651228
1898	18.97000000	0.26361226	0.19842044	0.27578695	0.61934275	-0.36721739	-0.09942735	0.28449769	-0.62154672	-0.78110939	0.61985911	-0.27663978	0.25343646	0.51318215	0.47174858	1.58040957	0.18390010	0.43164094	0.65366829	-0.43542336	-0.48538547	-0.66503928	-0.10351879	-1.24318268	0.58100879
1899	18.98000000	0.28843929	0.27318546	0.28301437	0.70138600	-0.49301363	-0.14032629	0.46591272	-0.71416267	-1.01059949	0.27196641	-0.31084308	0.18145745	0.61484941	0.48489274	1.61059608	0.33740870	0.45250037	0.65084434	-0.38062783	-0.46141415	-0.63908366	-0.14185952	-1.41823196	0.63507920
1900	18.99000000	0.31702596	0.35192009	0.29561344	0.91251589	-0.59853279	-0.16611111	0.63464711	-0.79087812	-1.22026419	-0.16102044	-0.38466908	0.14816850	0.70420812	0.49513329	1.70449445	0.52857133	0.48873160	0.63284317	0.13996193	-1.83398261	-1.29466081	-0.15625183	-1.56909180	0.68842255
1901	19	0.35992333	0.39943066	0.29876178	1.17138714	-0.36721403	-0.04967726	1.25681166	-1.26411356	-1.31681114	-0.69536858	-0.66445312	0.16563879	0.69765016	0.49272571	1.80602358	0.73796052	0.54189003	0.60275815	-0.35589023	-4.13716639	-1.78168541	-0.23296391	-1.79136110	0.74367739
1902	19.01000000	0.37029644	0.35540351	0.32072037	1.17352510	-0.10807835	0.21681879	0.70237623	-2.69622416	-1.10372218	-1.15997248	-1.04455135	0.14638213	0.47694609	0.57072569	1.89976420	0.95978150	0.60391171	0.53546090	0.45823515	-6.27379358	-2.34407832	-0.36094913	-2.02539058	0.78295058
1903	19.02000000	0.33185249	0.32700049	0.33382798	0.81219996	0.02720654	0.48128967	-3.91591480	-2.69920156	-0.27178521	-1.18470986	-1.18866811	0.01889207	0.24604048	0.58783531	1.97282615	1.05655088	0.69139841	0.41417389	1.73374506	-4.68028216	-1.95559459	-0.48028549	-2.23754872	0.88417194
1904	19.03000000	0.20328651	0.31344331	0.33945806	0.39456097	0.16395227	0.71099917	-1.93559370	-0.41562712	-0.55486581	-1.83189921	-1.18098922	-0.26324743	0.24652851	0.50820805	2.02694624	0.99358548	0.76325184	0.26110646	0.29717630	-4.03534815	-1.15308932	-0.55754775	-2.48482372	1.10554406
1905	19.04000000	0.04545249	0.28378986	0.32479337	-0.12565513	0.11285433	0.80592594	3.08054862	0.41918345	-2.03160120	-2.56185648	-0.85462175	-0.21752678	0.14000126	0.42918798	2.05424019	0.81391367	0.75064753	0.12440153	-0.01439270	-3.69784133	-0.68952569	-0.65359444	-2.69030692	1.39812455
1906	19.05000000	-0.03156635	0.23789183	0.24192988	-0.49296002	-0.13497436	0.53335333	5.15128422	0.07947126	-2.57998614	-2.20943896	-0.18146014	0.69501649	0.01016368	0.33368378	2.07420804	0.62922726	0.70465578	-0.04023973	-0.01256693	-2.77875246	-0.65320273	-0.81099711	-2.75703664	1.69369217
1907	19.06000000	-0.11693879	0.18193216	0.11656345	-0.64162830	-0.34504965	0.17015880	5.60615006	-0.03841020	-2.42689143	-1.37097043	-0.21410409	1.65721246	0.06077642	0.24299114	2.11347030	0.48023774	0.76791905	-0.20645991	-0.20615226	-2.47853040	-0.48249647	-0.75433921	-2.79503076	1.90199880
1908	19.07000000	-0.15701795	0.12563407	0.04841443	-0.56166202	-0.46918325	-0.15403855	6.15494382	0.21919692	-2.21635299	0.34294722	-0.57346944	1.72696725	0.03823013	0.12479400	2.17687846	0.27911148	0.87992208	-0.32696520	-0.37923692	-2.19352856	-0.28721884	-0.84483481	-2.76503538	2.09436487
1909	19.08000000	-0.10310376	0.04264291	0.04674163	-0.41404939	-0.40528966	-0.32930778	5.89279897	0.40457564	-1.87973582	1.51752404	-0.10622346	1.25666352	0.00625549	0.05291398	2.22258402	0.19735898	0.91795132	-0.44963126	-0.34997308	-2.05013524	-0.20000886	-1.08338488	-2.72632271	2.30082426
1910	19.09000000	-0.00162509	-0.04222736	0.03626536	-0.31662262	-0.28365417	-0.32504499	4.40325753	0.31918603	-1.40697667	1.09303358	0.13234854	0.84653387	-0.15635313	0.03541651	2.22755980	0.17518472	0.79082149	-0.62208972	-0.21764660	-1.70429632	-0.18434357	-1.21980286	-2.75959594	2.43912012
1911	19.10000000	0.06308523	-0.07663432	-0.00192413	-0.20211985	-0.14592073	-0.16121236	2.46051740	-0.11845608	-0.90528692	0.33873152	-0.04065298	0.52370292	-0.34763158	-0.03236269	2.19517210	0.09538713	0.68393327	-0.73338080	0.28144510	-0.97121552	-0.09791976	-1.24097735	-2.70595320	2.54824345
1912	19.11000000	0.04111851	-0.05862844	0.00544481	-0.05299661	0.00259033	0.07579285	1.09516664	-0.79151022	-0.89125447	-0.28395900	-0.32705703	-0.06509043	-0.39813729	-0.08765398	2.10379567	0.01477575	0.52613933	-0.77752125	0.39085348	-0.86610274	-0.01258628	-1.24713953	-2.64635616	2.61268777
1913	19.12000000	-0.01008406	-0.00597996	0.02023460	0.13909254	0.11680430	0.22267881	0.26752531	-1.43359621	-1.54823516	-0.78619912	-0.74793413	-0.77812716	-0.47726316	-0.21546435	1.97633517	-0.00741270	0.37701955	-0.80960854	0.24817064	-0.62925369	0.04107711	-1.18512510	-2.64304609	2.67742347
1914	19.13000000	-0.07556502	0.05292146	0.05315341	0.30450347	0.16745946	0.30363282	-0.60617625	-1.97256623	-1.92343739	-0.82999212	-1.07075990	-1.30306353	-0.41549368	-0.25307839	1.75869678	0.03822144	0.30792682	-0.87501868	-0.00710727	-0.41289254	0.11373031	-0.88351453	-2.55047934	2.50948557
1915	19.14000000	-0.14930330	0.09912004	0.06844128	0.43344442	0.17550718	0.33208916	-1.14664279	-2.12384416	-1.67388436	-0.89250456	-0.95799501	-1.73030272	-0.46931089	-0.14129401	1.54610577	0.09434806	0.26460958	-1.00461142	0.01254736	-0.30601646	0.13447893	-0.59727106	-2.32896801	2.24404240
1916	19.15000000	-0.21301869	0.11965146	0.06024023	0.47998461	0.14949190	0.30042869	-1.28636376	-1.73783450	-1.08896105	-1.12767149	-0.74155970	-2.01822897	-0.45943967	-0.25954493	1.32358581	0.20709672	0.14470834	-1.07521049	-0.01916218	-0.20779522	0.15355838	-0.45567340	-2.35946689	2.05644406
1917	19.16000000	-0.22327465	0.11663727	0.05377964	0.44320075	0.09247301	0.23608222	-1.26501428	-1.16902501	-0.55206511	-1.17862216	-0.74014372	-2.10409810	-0.14554302	-0.42384151	1.07323285	0.35275321	0.02959368	-1.04478013	-0.07240740	-0.14038535	0.18140427	0.02702843	-1.93592201	1.66864978
1918	19.17000000	-0.22931881	0.10599566	0.05971367	0.36691108	0.02607707	0.14577972	-1.15751233	-0.90930944	-0.35030140	-0.87054703	-0.59559697	-1.91361042	0.18572480	-0.32381846	0.87889379	0.45507830	-0.01196930	-0.91286454	-0.06141757	-0.11003322	0.17596079	1.17527528	-0.28511464	0.76254085
1919	19.18000000	-0.21708657	0.08470535	0.05606418	0.27836479	-0.01408187	0.01585871	-1.09523629	-0.76235717	-0.32085483	-0.42640181	-0.48841930	-1.37820028	0.49954872	-0.27542715	0.71258602	0.48673411	0.07864708	-0.69425415	-0.07071694	-0.06953100	0.17682989	0.43784824	0.80421612	-0.42420360
1920	19.19000000	-0.22733519	0.05153275	0.03829420	0.19079370	-0.02473939	-0.15301720	-1.07409183	-0.59116351	-0.28130993	-0.04044951	-0.40915870	-0.88135590	0.79954259	-0.41343828	0.15601178	0.34500678	0.14393414	-0.44326450	-0.09604084	-0.07088014	0.16038405	0.34951688	0.76639707	-1.56677001
1921	19.20000000	-0.23850191	0.02307028	0.01216804	0.14541942	-0.02206359	-0.31646144	-1.17960927	-0.55609869	-0.29542581	0.28868757	-0.26091911	-0.72471984	1.37301501	-0.27765499	-1.04979175	0.06850154	0.01843365	-0.18865702	-0.08788453	-0.05544558	0.14348474	0.17235849	1.08912103	-2.25480644
1922	19.21000000	-0.22685106	0.00707595	-0.01392260	0.15135629	-0.01201093	-0.43940781	-1.35858255	-0.57770593	-0.38644094	0.43092045	-0.24495220	-0.78397305	1.55886634	0.19752286	-2.31381406	-0.08258633	-0.18524587	-0.01378646	-0.05395936	-0.04252479	0.13020694	0.23699350	1.72061385	-2.59463943
1923	19.22000000	-0.16538643	0.00953816	-0.05457719	0.17963193	0.01282676	-0.48894703	-1.35670807	-0.59084183	-0.50619490	0.44140591	-0.31822147	-0.84725352	1.16390496	0.45874827	-2.96946941	-0.07571970	-0.31917095	0.04630943	-0.06236305	-0.03701770	0.11525803	0.52867838	2.37095140	-2.56378060
1924	19.23000000	-0.07594202	0.01307301	-0.08532903	0.21905678	0.03914840	-0.48798585	-1.14705221	-0.63003457	-0.58621034	0.37724603	-0.39077309	-0.90309239	0.17966034	0.08696739	-3.05280554	-0.03659190	-0.37400338	0.01319216	-0.03477773	-0.03187580	0.11489199	0.85985804	2.81729114	-2.22296300
1925	19.24000000	0.01840718	0.00654084	-0.10914096	0.27401568	0.06440723	-0.45306336	-0.78174027	-0.62645763	-0.62160352	0.25732658	-0.49430682	-0.99432624	-0.82838881	-0.44239546	-2.90773199	0.00804107	-0.39381604	-0.08025079	0.00095794	-0.03773947	0.12572518	1.14718704	2.93592179	-1.62762138
1926	19.25000000	0.09881408	-0.00935527	-0.10952737	0.33517402	0.08226240	-0.38986568	-0.24058509	-0.47420939	-0.59408926	0.07429163	-0.59012549	-1.13256911	-1.06051141	-0.69206740	-2.75168012	0.09536328	-0.37505824	-0.20297260	0.00680385	-0.04650749	0.14069613	1.32134988	3.01237339	-1.02928224
1927	19.26000000	0.18103357	-0.03791281	-0.10290452	0.40426517	0.09385901	-0.35594892	0.39994750	-0.28325730	-0.50488891	-0.13313298	-0.65515817	-1.28135690	-0.61626131	-0.43105985	-2.69413732	0.14807891	-0.29124844	-0.35158926	0.04833214	-0.07205361	0.14097184	1.48630716	3.04670266	-0.62936796
1928	19.27000000	0.25598733	-0.07596455	-0.09833748	0.46901782	0.09955180	-0.33659123	0.99998781	-0.12368320	-0.41613337	-0.38254364	-0.65707354	-1.34317438	-0.03884047	0.03310450	-2.73243912	0.09108569	-0.17601722	-0.49344113	0.09337695	-0.07167734	0.14206177	1.58388833	2.89766447	-0.43899634
1929	19.28000000	0.31496566	-0.12148243	-0.09178870	0.54335637	0.07881728	-0.34325362	1.44129325	-0.01433536	-0.36875162	-0.66556553	-0.67780947	-1.31591159	0.54345607	0.15836360	-2.83345071	0.04673404	-0.10854424	-0.60824259	0.11267790	-0.09656067	0.10617225	1.55015106	2.74398331	-0.47779024
1930	19.29000000	0.37026494	-0.15578890	-0.08501644	0.60182940	0.04890150	-0.34536306	1.61119229	0.04859247	-0.35335442	-0.82675703	-0.63171954	-1.24711044	0.96892034	0.05977195	-2.78114714	0.06378275	-0.12116955	-0.72137253	0.11024340	-0.12666522	0.02714818	1.28412879	2.62659812	-0.69317142
1931	19.30000000	0.41737754	-0.17732052	-0.07631805	0.63052113	0.03728060	-0.36664290	1.46421877	0.05047420	-0.34322484	-0.88953128	-0.51314314	-1.17397597	1.20593796	0.04346915	-2.66366051	0.06466006	-0.12912247	-0.87380974	0.11494959	-0.14740658	-0.05550263	0.85908568	2.43385019	-1.01844854
1932	19.31000000	0.45474452	-0.19137792	-0.05967103	0.64824382	0.05226151	-0.39027886	1.05864818	-0.01304945	-0.32690437	-0.94386560	-0.42479483	-1.11015064	1.00423358	0.29303665	-2.68686498	0.04705730	-0.17111306	-0.93765089	0.10129134	-0.14373113	-0.07587939	0.61205428	2.24775542	-1.45272477
1933	19.32000000	0.48032356	-0.19692698	-0.04234412	0.63437630	0.09503316	-0.41804633	0.52491808	-0.09863616	-0.30858052	-0.91518467	-0.29695475	-1.04038964	0.57722106	0.49281922	-2.84745422	0.01768502	-0.27533205	-0.91654817	0.07957375	-0.09845550	-0.08134443	0.48961218	2.18994328	-1.84028245
